<svg xmlns="http://www.w3.org/2000/svg" viewBox="0 0 432 432"><defs><style>.a{fill:#f8f2de;}.b{fill:#ecdcbf;}.c{fill:#d84040;}.d{fill:#a31d1d;}</style></defs><title>iconlauncher</title><rect class="a" width="432" height="432"/><path class="b" d="M335.42,80.8l96.58,103V432H155.86q-34.7-37.42-69.38-74.86A495.44,495.44,0,0,1,335.42,80.8Z" transform="translate(0 0)"/><path class="c" d="M206,262.67a27.37,27.37,0,0,1-27.38-27.37h0A27.38,27.38,0,0,1,206,207.92H345.52V102.71a28.88,28.88,0,0,0-.32-4.29l.32-.32h-.37a28.82,28.82,0,0,0-28.44-24.21H115.29A28.82,28.82,0,0,0,86.85,98.1h-.37v259l24.2-24.2h206a28.81,28.81,0,0,0,28.81-28.82V262.67Z" transform="translate(0 0)"/><path class="d" d="M167.94,108.29A13.7,13.7,0,0,1,181.65,122V154.6a13.7,13.7,0,0,1-13.71,13.7h-32.6a13.7,13.7,0,0,1-13.71-13.7V122a13.7,13.7,0,0,1,13.71-13.7h32.6m0-10h-32.6A23.73,23.73,0,0,0,111.63,122V154.6a23.73,23.73,0,0,0,23.71,23.7h32.6a23.73,23.73,0,0,0,23.71-23.7V122a23.73,23.73,0,0,0-23.71-23.7Z" transform="translate(0 0)"/><rect class="c" x="107.74" y="123.57" width="87.8" height="29.45"/><path class="b" d="M144.16,118.1h15a7.24,7.24,0,0,1,7.24,7.24v43a0,0,0,0,1,0,0H136.91a0,0,0,0,1,0,0v-43A7.24,7.24,0,0,1,144.16,118.1Z"/><path class="a" d="M145.92,118.1h13.45a7,7,0,0,1,7,7V168.3a0,0,0,0,1,0,0H138.93a0,0,0,0,1,0,0V125.09A7,7,0,0,1,145.92,118.1Z"/><rect class="b" x="144.77" y="129.03" width="6.02" height="3.01" rx="1.24"/><rect class="b" x="155.32" y="129.03" width="6.02" height="3.01" rx="1.24"/><rect class="b" x="146.68" y="141.7" width="11.94" height="3.01" rx="1.51"/></svg>